<mxfile host="app.diagrams.net" agent="Mozilla/5.0 (Windows NT 10.0; Win64; x64) AppleWebKit/537.36 (KHTML, like Gecko) Chrome/137.0.0.0 Safari/537.36" version="27.2.0">
  <diagram name="Page-1" id="cQh8XC-8AN_hPtIEwjMb">
    <mxGraphModel dx="1264" dy="1367" grid="1" gridSize="10" guides="1" tooltips="1" connect="1" arrows="1" fold="1" page="1" pageScale="1" pageWidth="850" pageHeight="1100" math="0" shadow="0">
      <root>
        <mxCell id="0" />
        <mxCell id="1" parent="0" />
        <mxCell id="kHEFJbHKmHTi1QgoeD7e-12" value="" style="endArrow=none;dashed=1;html=1;dashPattern=1 3;strokeWidth=2;rounded=0;" edge="1" parent="1">
          <mxGeometry width="50" height="50" relative="1" as="geometry">
            <mxPoint x="450" y="750" as="sourcePoint" />
            <mxPoint x="450" y="80" as="targetPoint" />
          </mxGeometry>
        </mxCell>
        <mxCell id="kHEFJbHKmHTi1QgoeD7e-44" style="edgeStyle=orthogonalEdgeStyle;rounded=0;orthogonalLoop=1;jettySize=auto;html=1;" edge="1" parent="1" source="kHEFJbHKmHTi1QgoeD7e-2" target="kHEFJbHKmHTi1QgoeD7e-15">
          <mxGeometry relative="1" as="geometry" />
        </mxCell>
        <mxCell id="kHEFJbHKmHTi1QgoeD7e-2" value="Confirmation&amp;nbsp;&lt;div&gt;Function&lt;/div&gt;" style="image;sketch=0;aspect=fixed;html=1;points=[];align=center;fontSize=12;image=img/lib/mscae/Functions.svg;" vertex="1" parent="1">
          <mxGeometry x="1040" y="359" width="50" height="46" as="geometry" />
        </mxCell>
        <mxCell id="kHEFJbHKmHTi1QgoeD7e-16" style="edgeStyle=orthogonalEdgeStyle;rounded=0;orthogonalLoop=1;jettySize=auto;html=1;" edge="1" parent="1" source="kHEFJbHKmHTi1QgoeD7e-3" target="kHEFJbHKmHTi1QgoeD7e-15">
          <mxGeometry relative="1" as="geometry" />
        </mxCell>
        <mxCell id="kHEFJbHKmHTi1QgoeD7e-35" style="edgeStyle=orthogonalEdgeStyle;rounded=0;orthogonalLoop=1;jettySize=auto;html=1;entryX=0.16;entryY=0.55;entryDx=0;entryDy=0;entryPerimeter=0;" edge="1" parent="1" source="kHEFJbHKmHTi1QgoeD7e-3" target="kHEFJbHKmHTi1QgoeD7e-32">
          <mxGeometry relative="1" as="geometry">
            <Array as="points">
              <mxPoint x="840" y="230" />
              <mxPoint x="840" y="186" />
              <mxPoint x="969" y="186" />
            </Array>
          </mxGeometry>
        </mxCell>
        <mxCell id="kHEFJbHKmHTi1QgoeD7e-43" style="edgeStyle=orthogonalEdgeStyle;rounded=0;orthogonalLoop=1;jettySize=auto;html=1;" edge="1" parent="1" source="kHEFJbHKmHTi1QgoeD7e-3" target="kHEFJbHKmHTi1QgoeD7e-41">
          <mxGeometry relative="1" as="geometry" />
        </mxCell>
        <mxCell id="kHEFJbHKmHTi1QgoeD7e-3" value="Frontend/Backend&lt;div&gt;App Public Service&lt;/div&gt;" style="image;sketch=0;aspect=fixed;html=1;points=[];align=center;fontSize=12;image=img/lib/mscae/App_Services.svg;" vertex="1" parent="1">
          <mxGeometry x="685" y="205" width="50" height="50" as="geometry" />
        </mxCell>
        <mxCell id="kHEFJbHKmHTi1QgoeD7e-4" value="ASP" style="image;aspect=fixed;html=1;points=[];align=center;fontSize=12;image=img/lib/azure2/app_services/App_Service_Plans.svg;" vertex="1" parent="1">
          <mxGeometry x="690" y="80" width="40" height="40" as="geometry" />
        </mxCell>
        <mxCell id="kHEFJbHKmHTi1QgoeD7e-10" style="edgeStyle=orthogonalEdgeStyle;rounded=0;orthogonalLoop=1;jettySize=auto;html=1;" edge="1" parent="1" source="kHEFJbHKmHTi1QgoeD7e-5" target="kHEFJbHKmHTi1QgoeD7e-3">
          <mxGeometry relative="1" as="geometry" />
        </mxCell>
        <mxCell id="kHEFJbHKmHTi1QgoeD7e-25" style="edgeStyle=orthogonalEdgeStyle;rounded=0;orthogonalLoop=1;jettySize=auto;html=1;" edge="1" parent="1" source="kHEFJbHKmHTi1QgoeD7e-5" target="kHEFJbHKmHTi1QgoeD7e-17">
          <mxGeometry relative="1" as="geometry">
            <Array as="points">
              <mxPoint x="520" y="230" />
              <mxPoint x="520" y="565" />
            </Array>
          </mxGeometry>
        </mxCell>
        <mxCell id="kHEFJbHKmHTi1QgoeD7e-27" value="NEL Traffic Only" style="edgeLabel;html=1;align=center;verticalAlign=middle;resizable=0;points=[];" vertex="1" connectable="0" parent="kHEFJbHKmHTi1QgoeD7e-25">
          <mxGeometry x="-0.1786" y="-2" relative="1" as="geometry">
            <mxPoint as="offset" />
          </mxGeometry>
        </mxCell>
        <mxCell id="kHEFJbHKmHTi1QgoeD7e-5" value="WAF" style="image;aspect=fixed;html=1;points=[];align=center;fontSize=12;image=img/lib/azure2/networking/Web_Application_Firewall_Policies_WAF.svg;" vertex="1" parent="1">
          <mxGeometry x="410" y="196" width="68" height="68" as="geometry" />
        </mxCell>
        <mxCell id="kHEFJbHKmHTi1QgoeD7e-7" style="edgeStyle=orthogonalEdgeStyle;rounded=0;orthogonalLoop=1;jettySize=auto;html=1;" edge="1" parent="1" source="kHEFJbHKmHTi1QgoeD7e-6" target="kHEFJbHKmHTi1QgoeD7e-5">
          <mxGeometry relative="1" as="geometry" />
        </mxCell>
        <mxCell id="kHEFJbHKmHTi1QgoeD7e-8" value="Optout.dataservice.london.nhs.uk" style="edgeLabel;html=1;align=center;verticalAlign=middle;resizable=0;points=[];" vertex="1" connectable="0" parent="kHEFJbHKmHTi1QgoeD7e-7">
          <mxGeometry x="-0.0952" y="-1" relative="1" as="geometry">
            <mxPoint as="offset" />
          </mxGeometry>
        </mxCell>
        <mxCell id="kHEFJbHKmHTi1QgoeD7e-6" value="Patient" style="shape=umlActor;verticalLabelPosition=bottom;verticalAlign=top;html=1;outlineConnect=0;" vertex="1" parent="1">
          <mxGeometry x="30" y="200" width="30" height="60" as="geometry" />
        </mxCell>
        <mxCell id="kHEFJbHKmHTi1QgoeD7e-9" value="HTTPS" style="text;html=1;align=center;verticalAlign=middle;whiteSpace=wrap;rounded=0;" vertex="1" parent="1">
          <mxGeometry x="360" y="196" width="60" height="30" as="geometry" />
        </mxCell>
        <mxCell id="kHEFJbHKmHTi1QgoeD7e-11" value="Azure" style="text;html=1;align=center;verticalAlign=middle;whiteSpace=wrap;rounded=0;" vertex="1" parent="1">
          <mxGeometry x="500" y="80" width="60" height="30" as="geometry" />
        </mxCell>
        <mxCell id="kHEFJbHKmHTi1QgoeD7e-13" value="Internet" style="text;html=1;align=center;verticalAlign=middle;resizable=0;points=[];autosize=1;strokeColor=none;fillColor=none;" vertex="1" parent="1">
          <mxGeometry x="345" y="80" width="60" height="30" as="geometry" />
        </mxCell>
        <mxCell id="kHEFJbHKmHTi1QgoeD7e-14" value="HTTPS" style="text;html=1;align=center;verticalAlign=middle;resizable=0;points=[];autosize=1;strokeColor=none;fillColor=none;" vertex="1" parent="1">
          <mxGeometry x="620" y="196" width="60" height="30" as="geometry" />
        </mxCell>
        <mxCell id="kHEFJbHKmHTi1QgoeD7e-15" value="Serverless&lt;div&gt;SQL&lt;/div&gt;" style="image;aspect=fixed;html=1;points=[];align=center;fontSize=12;image=img/lib/azure2/databases/SQL_Database.svg;" vertex="1" parent="1">
          <mxGeometry x="936" y="350" width="48" height="64" as="geometry" />
        </mxCell>
        <mxCell id="kHEFJbHKmHTi1QgoeD7e-28" style="edgeStyle=orthogonalEdgeStyle;rounded=0;orthogonalLoop=1;jettySize=auto;html=1;" edge="1" parent="1" source="kHEFJbHKmHTi1QgoeD7e-17" target="kHEFJbHKmHTi1QgoeD7e-15">
          <mxGeometry relative="1" as="geometry">
            <Array as="points">
              <mxPoint x="900" y="565" />
              <mxPoint x="900" y="565" />
            </Array>
          </mxGeometry>
        </mxCell>
        <mxCell id="kHEFJbHKmHTi1QgoeD7e-42" style="edgeStyle=orthogonalEdgeStyle;rounded=0;orthogonalLoop=1;jettySize=auto;html=1;" edge="1" parent="1" source="kHEFJbHKmHTi1QgoeD7e-17" target="kHEFJbHKmHTi1QgoeD7e-41">
          <mxGeometry relative="1" as="geometry" />
        </mxCell>
        <mxCell id="kHEFJbHKmHTi1QgoeD7e-17" value="Frontend/Backend&lt;div&gt;App Manage Service&lt;/div&gt;" style="image;sketch=0;aspect=fixed;html=1;points=[];align=center;fontSize=12;image=img/lib/mscae/App_Services.svg;" vertex="1" parent="1">
          <mxGeometry x="685" y="540" width="50" height="50" as="geometry" />
        </mxCell>
        <mxCell id="kHEFJbHKmHTi1QgoeD7e-19" value="" style="endArrow=none;dashed=1;html=1;dashPattern=1 3;strokeWidth=2;rounded=0;" edge="1" parent="1">
          <mxGeometry width="50" height="50" relative="1" as="geometry">
            <mxPoint x="40" y="430" as="sourcePoint" />
            <mxPoint x="450" y="430" as="targetPoint" />
          </mxGeometry>
        </mxCell>
        <mxCell id="kHEFJbHKmHTi1QgoeD7e-21" style="edgeStyle=orthogonalEdgeStyle;rounded=0;orthogonalLoop=1;jettySize=auto;html=1;" edge="1" parent="1" source="kHEFJbHKmHTi1QgoeD7e-20" target="kHEFJbHKmHTi1QgoeD7e-5">
          <mxGeometry relative="1" as="geometry">
            <Array as="points">
              <mxPoint x="370" y="565" />
              <mxPoint x="370" y="230" />
            </Array>
          </mxGeometry>
        </mxCell>
        <mxCell id="kHEFJbHKmHTi1QgoeD7e-22" value="Optout-manage.dataservice.london.nhs.uk" style="edgeLabel;html=1;align=center;verticalAlign=middle;resizable=0;points=[];" vertex="1" connectable="0" parent="kHEFJbHKmHTi1QgoeD7e-21">
          <mxGeometry x="-0.1724" y="4" relative="1" as="geometry">
            <mxPoint x="-109" y="4" as="offset" />
          </mxGeometry>
        </mxCell>
        <mxCell id="kHEFJbHKmHTi1QgoeD7e-20" value="Patient" style="shape=umlActor;verticalLabelPosition=bottom;verticalAlign=top;html=1;outlineConnect=0;" vertex="1" parent="1">
          <mxGeometry x="40" y="535" width="30" height="60" as="geometry" />
        </mxCell>
        <mxCell id="kHEFJbHKmHTi1QgoeD7e-23" value="NEL" style="text;html=1;align=center;verticalAlign=middle;resizable=0;points=[];autosize=1;strokeColor=none;fillColor=none;" vertex="1" parent="1">
          <mxGeometry x="365" y="440" width="50" height="30" as="geometry" />
        </mxCell>
        <mxCell id="kHEFJbHKmHTi1QgoeD7e-26" value="HTTPS" style="text;html=1;align=center;verticalAlign=middle;resizable=0;points=[];autosize=1;strokeColor=none;fillColor=none;" vertex="1" parent="1">
          <mxGeometry x="625" y="535" width="60" height="30" as="geometry" />
        </mxCell>
        <mxCell id="kHEFJbHKmHTi1QgoeD7e-29" value="Secret Store" style="image;aspect=fixed;html=1;points=[];align=center;fontSize=12;image=img/lib/azure2/security/Key_Vaults.svg;" vertex="1" parent="1">
          <mxGeometry x="936" y="640" width="60" height="60" as="geometry" />
        </mxCell>
        <mxCell id="kHEFJbHKmHTi1QgoeD7e-30" value="" style="endArrow=none;dashed=1;html=1;dashPattern=1 3;strokeWidth=2;rounded=0;" edge="1" parent="1">
          <mxGeometry width="50" height="50" relative="1" as="geometry">
            <mxPoint x="870" y="610" as="sourcePoint" />
            <mxPoint x="870" y="40" as="targetPoint" />
          </mxGeometry>
        </mxCell>
        <mxCell id="kHEFJbHKmHTi1QgoeD7e-31" value="PDS" style="ellipse;shape=cloud;whiteSpace=wrap;html=1;" vertex="1" parent="1">
          <mxGeometry x="970" y="40" width="120" height="80" as="geometry" />
        </mxCell>
        <mxCell id="kHEFJbHKmHTi1QgoeD7e-32" value="Gov.notify" style="ellipse;shape=cloud;whiteSpace=wrap;html=1;" vertex="1" parent="1">
          <mxGeometry x="1001" y="140" width="120" height="80" as="geometry" />
        </mxCell>
        <mxCell id="kHEFJbHKmHTi1QgoeD7e-33" value="&lt;img src=&quot;data:image/png;base64,iVBORw0KGgoAAAANSUhEUgAAAnIAAAHLCAIAAADDYeLiAAAgAElEQVR4Ae29P47jSBb1Sww6q6ob3xg1Ro/1FpBAO28pbQ2QQG1jUNOYFRQSmFrBt4gGagFvHQmUp1RabaSThgw9kME4cRWUDlm6EhlUHBmpS14FGfG7J+5lUH+y2XWPt+4R7OFf7t3tdpvNZtgq7OFtPV6d1zL3kORtxVmcLQFrc+Vwr3R1KZLibEmWoKtm3z1Ct4I9/Mu9+/1+u90OW4U9vK3Hq/Na5h6SvK04i7MlYG2uHO6Vri5FUpwtyRJ0pbKaRaTdlEwzKLpsAhCuDY+3hHSAYcLwjIi31XgBeTTncJLcK87zc1ZZtcx7WzLNoKisAgjXhser9AfIKjMWhZOGdGVhemYob2s5q6xa5r09Hd+wMW/r8dqw6bwekrytOFt1cVYerziLsyVg7bXrSmXVRrO3eVCVDiwyzsrjFWdxtgSsLV1Np6F5NJ3VpXSlsmqZ9zaHK5laZJyVxyvO4mwJWFu6mk5D82g6q0vpSmXVMu9tDlcytcg4K49XnMXZErC2dDWdhubRdFaX0pXKqmXe2xyuZGqRcVYerziLsyVgbelqOg3No+msLqWrJhyIf6GYe0v4+m0Yhf3L++zxarzibAlYW7qaTkPzaDor6Wo6qxJ0pbJq49XbXMQlhG3Yad5nj1fjtbQ9JHlbcRZnS8DaXDncK11diuR0zroJbO8Q9HYIwxFH3KXvcUYSIz+dwUlyr25eAbLzm4vibElKV5YG14bHWzNnlVWrsd7mYqpZLkNYnJXHK86WtockbyvO4mwJWJsrh3tr1pXKqlVRb0suGRStzgGEa8PjrTkNAS8MD0neVpwBWXdBLAonDasrldUMbLupaZlBUVkFEK4Nj9dOS5wOhufIvK3OC8ijc5+T5F5xroezyqqNdW9remRQVFYBhGvD41XaBWSVN4vCSUO6sjA9M5S3tZxVVi3z3p6Ob9iYt/V4bdh0Xg9J3lacrbo4K49XnMXZErD22nWlsmqj2ds8qEoHFhln5fGKszhbAtaWrqbT0DyazupSulJZtcx7m8OVTC0yzsrjFWdxtgSsLV1Np6F5NJ3VpXSlsmqZ9zaHK5laZJyVxyvO4mwJWFu6mk5D82g6q0vpqtl2j+fuEeztdvvSPbC52Wyen5/D/rDz5eXFGo0ecxFAUDJj0z2yndh0xvfp6QmHyoyrnncuqDpPnwey4G6326vGdyld6bwItOILFNvt9lJ58jKr1abpj2OvC2RfnADh7LnO4m0XvNol470425oPSDhzbXi8C+pKn2yH2j0R5G1rjq/KKgS2AqO29EfGu4JoraeLhDNPnR5vzWl3KA0PSd5WnC1tzsrjtZxVVi3z0u3a0h8Zb+mhWlX/CGdPouFtbRoa0uJtPV6d19L2kORta+assmo1VrpdW/oj4y09VKvqH+HMU6fHW3PaHarDQ5K3FWdLm7PyeC1nlVXLvHS7tvRHxlt6qFbVP8LZk2h4W5uGhrR4W49X57W0PSR525o5q6xajZVu15b+yHhLD9Wq+kc489Tp8dacdofq8JDkbcXZ0uasPF7LWWXVMi/dri39kfGWHqpV9Y9w9iQa3tamoSEt3tbj1XktbQ9J3rZmziqrVmOl27WlPzLe0kO1qv4Rzjx1erw1p92hOjwkeVtxtrQ5K4/Xcm7Cgd66R7CHf7l3t9uRaWmHJNtJoGn6eP1ojHgEuXe32202m+EZwx7e1uOVrpxqmd68Nl0tpWedF2nEkxl42wXzFeKrsjo9+Sz/ytrSny7X5tFcbbpC+kOWh8FTtsdbQrrHMGF4RsTb1jxe3QSeJ3Fd5iykzIR5cuo0Hq+9uTE8vufIvO1+vyfjHfZEe84mQDjzGHm8C+pKv7IEqXgiyNvWHF+VVQhsBUZt6Y+MdwXRWk8XCWeeOj3emtPuUBoekrytOFvanJXHazmrrFrmpdu1pT8y3tJDtar+Ec6eRMPb2jQ0pMXberw6r6XtIcnb1sxZZdVqrHS7tvRHxlt6qFbVP8KZp06Pt+a0O1SHhyRvK86WNmfl8VrOKquWeel2bemPjLf0UK2qf4SzJ9HwtjYNDWnxth6vzmtpe0jytjVzVlm1Givdri39kfGWHqpV9Y9w5qnT46057Q7V4SHJ24qzpc1ZebyWs8qqZV66XVv6I+MtPVSr6h/h7Ek0vK1NQ0NavK3Hq/Na2h6SvG3NnFVWrcZKt2tLf2S8pYdqVf0jnHnq9HhrTrtDdXhI8rbibGlzVh6v5ayfg7DMS7dr+9o+Sfelh2pV/atNV/o5iFA/drsd/0kHj7fqn4MIfJ34lP7myaK1pT/pSrpCAbCGM1+prAKmhyRvW3VZDfM2UD41h7lXv4ZzitvF95Myw2Pk8dqbG8MReY7M20pXQ9pX2lObrvQrSxASn4Me74J5Y/H46r1VCGwFRm3pj4x3BdFaTxcJZ09i5W1rTrtDaXBWHq84W9oekryt5ayyapmXbteW/sh4Sw/VqvpHOPNU4vHaNDSk5Tkyb6vzWtqclcdbM2eVVaux0u3a0h8Zb+mhWlX/CGdPYuVta067Q3VwVh6vOFvaHpK8reV8o2X16fG+OXjcf/news333z8+JebfPqUmD3+m/eVYtaU/Mt4ZgmL10Cnj4dvJs357aIKWvj/+1vyQeL59anpxnjz41R2EM08lHq9NQ8MReo7M2+q8ljZn5fHWzPmGy6otmTHrtWXV7P/zoYmbbQ797bGrvX31/aHkaJV6PftW09/j4+Pr6+uQGxnv8MUX39NK4lOqpN+/3NvNw9NFgR3unbKlsnqUkieh87Y1p/shas7K462ZcyVlNa4hsrK638fU2b7ALhri/qEOl9xDyoxnAvC2M0yPDx8+vHv37r///W9WXMl4ZwhDroE/H+KF17cH3Ndo624rnu5x//gUlXZwayQuc9sjPDykF+/bUh1ahrspM4zq2CkIZ64Nj3cGXR0ba7tv8U+KDjvmIcnbaryWNmfl8VrOdZRVVFMYIB1zZZ/gzOoELynHuNX097///e+X7vHhwwdbXMl4ZwhKVlbjprkCS3LCahVltS294YZH2zDcCGnvjoSdXSXuxKbV6tFQehIcb2vT3/DUvK3Hq/Na2h6SvG0JnG/0V5bafHfw6O/opjwYQxzLaredrULia4p5vuGfg/jHP/4RAvbzzz9/+PDhjz/++Ouvv5Yvq1ZEeI8g6QHVFEYsq20FjYvUVnWdbXbilnIhZTWkquFf/pV/j7fmnwsQZ49yeNsSdHXDZdW8h4o8OCirbXY7ki7NigRtCzBskr89+29/+xsG9e7du3/961/Ll9Wjdy+6RWfsapDZ0bIaX9I+dy8z13AqqyWkP5U3XqI83prjW8dNYFTEQVmNd/a+PWBt0b0YWQ9NSzBImQkJ4lQnPd55bqpkq9VwK5iM99RIL7g/aiM7ZLq7u9+jmsIwq9Xh5VrBZTUbJDY9yuFt59EVBmINvbcKGjxGHm/N8a27rLbLjn5Re5hD29RpP8EEFS5rkDLjmQC87QzTI7y3Gm7/Fvveagx9KqvttVevn0FZbStu/95q97J4EzjWWly3FXITOI4uf+ba8Hhn0FU+mLitshpJ7D0R5G1rjm+FZXVway5KrK2s8VFgTeW/kcsl7vHOMD0+fPhwd3dnC2qICbmMiEG74vPhlVY6UVcmW6Hcf/kWv6XafQSpLbFxtXrwSeD4fsSx1Wo42rJ6I5w9yuFtZ9BVitmhpbIKHjxGHm/N8b3RsgrV3JZxq+mvzO+t3pZ22GhuVVenxqyyCjKewsnbqqy6bgXwVRTiJ8NPoLb0R8brh6kjgADhzFOnx1tz2gV5GB6SvK04A/J+76p00zlrtWqZl27Xlv7IeEsP1ar6RzjzVOLxKt1bjXhI8rbiPD9nlVXLvHS7tvRHxlt6qFbVP8KZp2yPV+neasRDkrcV5/k5q6xa5qXbtaU/Mt7SQ7Wq/hHOPGV7vEr3ViMekrytOM/PWWXVMi/dri39kfGWHqpV9Y9w5inb41W6txrxkORtxXl+zs22ezx3j2Bvt9uX7oHNzWbz/Pwc9oedLy8v1iDT0g5JtpNA0/TxQmhgbLoHNjPDGd+np6fsgNi86nmlK6dgJjavTVdL6VnnnSdvLM5Zq9WJmaeIl5Eyw69YPd4Fr3bJeIuIx610gnD2KIe3XVBX+oINlMtj5PHWHF+VVQhsBUZt6Y+MdwXRWk8XCWdPYuVta067Q2lwVh6vOFvaHpK8reWssmqZl27Xlv7IeEsP1ar6RzjzVOLx2jQ0pOU5Mm+r81ranJXHWzNnlVWrsdLt2tIfGW/poVpV/whnT2LlbWtOu0N1cFYerzhb2h6SvK3lrLJqmZdu15b+yHhLD9Wq+kc481Ti8do0NKTlOTJvq/Na2pyVx1szZ5VVq7HS7drSHxlv6aFaVf8IZ09i5W1rTrtDdXBWHq84W9oekryt5ayyapmXbteW/sh4Sw/VqvpHOPNU4vHaNDSk5Tkyb6vzWtqclcdbM2eVVaux0u3a0h8Zb+mhWlX/CGdPYuVta067Q3VwVh6vOFvaHpK8reXchJe+dY9gD/9y7263I9PSDkm2k0DT9PH60RjxCHLvbrfbbDbDM4Y9vK3HK1051TK9eW26WkrPOi/SiCcz8LYL5ivEV2V1evJZ/pW1pT9drs2judp0hfSHLA+Dp2yPt4R0j2HC8IyIt615vLoJPE/iusxZSJkJ8+TUaTxee3NjeHzPkXlb/R/fIe0r7alNV/qVJQiJz0GPd8G8sXh8VVYhsBUYtaU/Mt4VRGs9XSScPYmVt6057Q6lwVl5vOJsaXtI8raWs8qqZV66XVv6I+MtPVSr6h/hzFOJx2vT0JCW58i8rc5raXNWHm/NnFVWrcZKt2tLf2S8pYdqVf0jnD2JlbetOe0O1cFZebzibGl7SPK2lrPKqmVeul1b+iPjLT1Uq+of4cxTicdr09CQlufIvK3Oa2lzVh5vzZxVVq3GSrdrS39kvKWHalX9I5w9iZW3rTntDtXBWXm84mxpe0jytpazyqplXrpdW/oj4y09VKvqH+HMU4nHa9PQkJbnyLytzmtpc1Yeb82cVVatxkq3a0t/ZLylh2pV/SOcPYmVt6057Q7VwVl5vOJsaXtI8raWs34OwjIv3a7ta/sk3ZceqlX1rzZd6ecgQoXY7Xb8Jx083qp/DiLwdeJr9JiLAOZDZngiyNsuOD3mgqrz1PWjmCqryB587nu8C+aNxeN7mZvAi/+qxXBtEHQz3B/2eLx2sT88vufIvK3Oa2lzVh6vkzNZYfNeOc+72+0sH2vrvJaGOFsaXBseb82cVVatxnqbi6lmuQxhcVYe70o5q6xCJDz6K42vLl8UXxDIDCwvVVYzMu2m0kEGBXLJ9o+y4iS5d6VpV2UVIrnJ+KqsKr4gkBnIkyqrGZl2U+kggwK5ZPtHWXGS3KuyamlzVh7vSjmrvEEePPqKL0DNlq9UVi3z3pZMMygqqwDCtcH/Ryxvq/QHyLOlP3vGYPMYebyKr6XtIcnblsBZZdXGurfLD9uw07zPHm8JMl3ReHUTGMHiqpOuAEqXERaFk0YJulJZzQLabiodZFC0WgUQrg2tVgFK88iiCLbmEZiMzqNV3+RXWUWgk8FDXsLVUOprtHifPV6NNzJun0dJarUKXJyVdAVQU3S16jJjRxpsrg2PtwRdXeZXlhb/+m0Ig/3r+SIzb1vz15wt4WBzVh7vSjmf/YtFKx3v29vbUBVTtKHxWm6emcLbivP8nFVWLfPelkwzKLpsAhCujbe3N5XViayU7gFKPyJoUThplKAr3QQe3p8YudFXwk2GYaeDLof7/bdcNF5LdZSzbgIDF2clXQGUbgJbFE4aJehKZTULaLupdJBB0UctAIRrQx9ZAijNI4si2JpHYDI6j1b9XrLKKgKdDB7yEq6GUl+jxfvs8Wq8kXH7PEpSq1Xg4qykK4CaoqtVlxk70mBzbXi8JehKZXUY8ZHUWULYhp32CJG31Xgtbc5Kq9XprKSr6axGVUeKrjjPz1ll1TLvbS5iydQi46w83pVy1moV8uDRX2l8SQHTeBH6YFR701tlNVNCu6npkUGpdnpkHEa1odWqJaZ5ZGnoMsLS4NrweEvgrLJqY93bPKglhG3Yad5nj1fjtbRHSWq1ClyclXQFUFMu17RKBq7ydaWyimAlo/ywpb5Gi/fZ41X6i4zb51GSKqvAxVlJVwA1RVcqq8BVvq5UVhGsZJQfttTXaPE+e7xKf5Fx+zxKUmUVuDgr6QqgpuhKZRW4ytdVs+0ez90j2Nvt9qV7YHOz2Tw/P4f9YefLy4s1np6e8OLM2HSPbCc2dV6Q3G634gwawVijrpqmn1OaR9LzDeg5ZP6QsVUXJtZBrVZxDZSM8q+GUl+jxfvs8WpVERm3z6MktVoFLs5KugKoKbrSahW4yteVyiqClYzyw5b6Gi3eZ49X6S8ybp9HSaqsAhdnJV0B1BRdqawCV/m6UllFsJJRfthSX6PF++zxKv1Fxu3zKEmVVeDirKQrgJqiK5VV4CpfVyqrCFYyyg9b6mu0eJ89XqW/yLh9HiWpsgpcnJV0BVBTdKWyClzl60plFcFKRvlhS32NFu+zx6v0Fxm3z6MkVVaBi7OSrgBqiq5UVoGrfF2prCJYySg/bKmv0eJ99niV/iLj9nmUpMoqcHFW0hVATdGVyipwla8rlVUEKxnlhy31NVq8zx6v0l9k3D6PklRZBS7OSroCqCm6UlkFrvJ1pbKKYCWj/LClvkaL99njVfqLjNvnUZIqq8DFWUlXADVFVyqrwFW+rprQxbfuEezhX+7d7XabzWbYyn9knTejKs4AwrXh8Tr13DT9nEJXYfBeOc/79vaGE2WGzpsB0TwCEK4Nj7dmPausQmDJ4GKqWS6JUbQ4K493pZxVVqM0djz6K42vLl8UXxDIDFyu6SYwbi0kI8BK2wNL/ygNSDgrj3elNwl1E3iiNlYaX92MVXxBIDNQF1RWMzLtJi8GSgcWGWfl8a6Us8oq5MGjv9L4qqwqviCQGSqr7ZTPoGBT6QAoggG5ZPtHL0E4Se5dadpVWYVIbjK+yhuKLwhkBvKkVqsZmXZT6SCDArlk+0dZcZLcq7JqaXNWHu9KOau8QR48+oovQM2Wr1RWLfPelkwzKCqrAMK1sdvttFqdyErpHqBmS/f2jMEe1bMuXwCNs7J6VlkFtGRMx5faRIu39Xht2OLZ0rPnyLytzpsoj93JUFmdzkq6ms6Kz1DuFef5OausWua9LZlmULRaBRCuDZVVgBpdgSndT2c1qjqyphTn+TmrrFrmvc1FLJlaZJyVx7tSzroJDHnw6K80vqSAabwIfTCqvRzXz0GEuXDwV19jP8ChX9EyOLg23t7e9HMQoMVZ6ecgAGq3G/npDE6Se8V5fs4qq5Z5b0umGRT8eki2X+kgA6KyaoFoHlkaKm+WBteGx1sCZ90Ezu5btJsh/EcccVe1NzcigPTMWXm8K71JqJvAEAeP/krjq5vAii8IZAbqgspqRqbdVDrIoEAu2f5RVpwk96407aqsQiQ3GV+VVcUXBDIDeVJlNSPTbiodZFAgl2z/KCtOkntVVi1tzsrjXSlnlTfIg0df8QWo2fKVyqpl3tuSaQZFZRVAuDb0BRuAGk1hSvfTWY2qjlxkiPP8nFVWLfPe5iKWTC0yzsrjXSln3QSGPHj0VxpfUsA0XoQ+GNVejqusZkpoNzU9MijVTo+Mw6g2tFq1xDSPLA1dRlgaXBsebwmcVVZtrHubB7WEsA07zfvs8Wq8lvYoSa1WgYuzkq4AasrlmlbJwFW+rlRWEaxklB+21Ndo8T57vEp/kXH7PEpSZRW4OCvpCqCm6EplFbjK15V+DiLE6OAv/zJyCV83Puhut8H77PFqvJb2KEn9yhJwcVbSFUDpZ1UsCieNEnSlspoFtN1UOsig6FeWAIRrQ7+yBFCaRxZFsDWPwGR0Hr29veHFmcHbFlFWw8o69Bur7MzgXt3Msbg4K49XnFfBWTeBESaudukZoHQT2KJw0ihBV3pvNQtou6l0kEHRJ4EB5Kg2Hh8ff/nll69fv+KTwF+/fv35558fHx/RULqyKIItXYHJUV1dxFtCmcFAYNz2eFVWEehk8JBLponU2CUIJ8m9K+L8+vp6d3f38ePHf/7zn03T/Prrrx8/fry7u3t9fZ3OakXjxaB4BLlX4wXG0UsuTpJ7xXl+ziqrlnlvS6YZFK0qAOSUNj5//vzTTz81TfP3v/+9aZqffvrp8+fPaBWMU23xMnEGCs7K41WZAWSVc4vCScPqSmU1A9tu8klr8Q0b87Yer85raXtI8rbncX59fX3//n0TH+/fv8+WqtKVDV+wdRkBJlyTHu95eg4d03kRoB+avyqrlltvczFJphYZZ+Xxro7z58+f7+7umqa5u7sbLlV/aFpawsH2kORtV8d5lKTGm+lHly8AwrXh8dp5pLIK4MngcC2+1CZavK3Hq/NGxu2zhyRvezZnLFiPLlVH+3z2eUePfKXx6rxWkKM0FF+Li2vS4y2Bs8qqjXVv86CWELZhp3mfPV6N19LmJP/9738ffVc1HIG3FefpnDlJ7hVncbYErM2Vw71WVyqrlmpvT8c3bMzberw2bDqvhyRv6+H8119//f7778N3VUO8rndefmTu9YyXH5l7dV47izkrj1ec5+fcbLvHc/cI9na7feke2NxsNs/Pz2F/2Pny8mKN+EENPV+dAIKSGZvuke3EpjO+T09POFRmXPW8V6epE0QCWVixedX4SlcR/80+Q0iZcZO6gp4vs1olvyxjrxRkOwkQzp7rWd52watdMl4nSTW3BAhnrg2PV7qyIbhJuzZd4aNhKqtr0nNtMiXjXVPYiu8r4ewpnLytymrxuvB2sDZdqax6FbNI+9pkSsa7CP9bPSnhzEujx6uyeqtywrhq05XKKkK/JqM2mZLxrilsxfeVcPYUTt5WZbV4XXg7WJuuVFa9ilmkfW0yJeNdhP+tnpRw5qXR41VZvVU5YVy16UplFaFfk1GbTMl41xS24vtKOHsKJ2+rslq8LrwdrE1XKqtexSzSvjaZkvEuwv9WT0o489Lo8aqs3qqcMK7adKWyitCvyahNpmS8awpb8X0lnD2Fk7dVWS1eF94O1qarVFaD9N+6R7CHf7kX/7rZGwS1HyPQNM0wOv4IjsZ3s9kscl4yLcdQyf8DBKSrH4Cll04mUJuukCf7NM0TK/eqrE6WmfeFtclUZdWrmGntpatpnPSqHyNQm65SWQ2cwlrkFDPu3e/3Sn+n0F12P+HMY+Tx6mbdZYNY4NGkqwKDcgNdqk1X6SZwCJ4z7RJ8NyCOcoZAOHsiyNuqrJYjgCv1RLq6EtjKD1ubrlRWVyn42mRKxrvK+JXaacKZX3J5vLpcK1UOF+tXbbpSWb2YdOY8UG0yJeOdE/vNn4tw9hRO3lZlVbo6RYArh3sX1JXK6qmAFr1f6a/o8Ky2c9LVakNXdMdr05XKatFyPNW52mRKxnsKkfafQYBw5isDj3fBVQUZ7xn01OQUAcLZoxzedkFdqayeUkLR+2uTKRlv0XFaW+cIZ57CPN4F0x8Z79pCV3R/CWePcnjbBXW1WFn99qmJj/vHJ2ji++Nv3e5P/zca3+A7bvz50Pz2+P24b8LePx+aT4NT/PkQ+9bcfzn/2BNOf/CSb5+mnq42mZLxHhDUho8A4cxTmMe7YPoj4/WBVOsDAoSzRzm87YK6SmU1dJH/4AP3Tv45iK52opg9Pd43zcOfIQzfHpqHrsrBOAjPxTeOVLK2pqLSt12drbIe6cyJAdf29WoyLU8Q0u5zCEhX51BTmzECtekq/RzEfGV1uL7s93yLi8T/5//tV4uhvMUlLKpv+/r7+6Zp16nxaG1N+vTQ7gz7+0jHY356eEjFEir4/vgbKmjYOaijbdUPlX6PFXYstO2LHz7FXscLBbwsrYO7S4euZ+lQWW+/f+n7Hg+OTh4xapOpyuoREVxhl3R1Bag6ZPszQaG+DP/ypZrHu9vtUN6WOm8Tgh9Of0oI3DvxV5aOrMnaqhPK27dY/GB0xSxULKwjYez3e1NWm1D/zPK3rXBd265oZRV0v396vM9uIKee5Ay6I3RFMR2/q/fhCOhS7M9+j5rdlvawHG/7072+K73Z0dqRTqmpnDOPkce74E0VldVcjtfZJpw9yuFtpavrBLOgo9amq3QTOASBTwDu5ekeQT5WPFBEjxq4RdytDv/sSmlcQR6U1X69GF+2x9H2+wO770tbKeMSs9/Vlsx+QYkOB8N2O1br9kSxEMZzpbIaD9BW3HjMePx4hH1XfVPRjUeLbU881yZTMt4ThLT7HAKEM5/7Hq/K6jmhWlWb2nS1jrIa7uyGv23hsaUr2qbsxbJ6sPSMZc/I8dsnFOy496BJ3Nk+2wq6j/U4nqh9QTp+t65tO9vXyLas2ke7aD7S273daU99xK5NpmS8R+ho17kECGdP4eRtVVbPDddq2tWmqwXK6kFRDMKIpdEUJ1QpGEZD6fUHN4HjUg/Vzra1djjU0U9FHZTP7nX9y0whxH1pnOigrMaORq/tbfSZo8WXqaxGOMNnMi2HL9aeswkQzrw0erwqq2fHay0Na9PVEmW1W/mlu6/tAhGrRhQ/GKhh3Vuh4ZW2UEX7VKE6+d5qbJhLE++Sto625pkjZO+GpoqIC4K4kA1t8YZxP8BuIdse5FRv45VB3qlsuzaZkvFmZC60GT/pFu8yxE+qTzy8FcZhk/guwOHeUrYIZ0/h5G1VVg/Cf5B/DjzHN/AeU0xoJrccbzH/3tp0tUhZbcPafWYnJC37SSJUUxixtnWvTbdV8VGjI2KySa3Pj/dfHuOHoXpRff9yf7KG2du25s1X9Dk2zE4UBtLu7AeG77x2lw5hBOFLukb66SDh7nE8OBP/rcr08fHx9fV1OHIy3uGLL7EnfcqsPdrBld8lDo+fzQEAACAASURBVF/qMQhnXho9XpVVI4f2c44Pn06nJvPS3kRZjS6TW+KupZ9r09ViZXXuQA/EN3cHLnq+W5Xphw8f3r1799///jcrrmS8F+WKgx2W1X33brq9kgvXTdhjLhO7dW26VMKlWH97xq5WcfXWH6drNfi+Fvo0g0E4ewonb6uymiIbvptgRdLdMIs3S8xiI16pd1/w6+6idQuM/+9HvqeXzntlqzZd3XZZTQtH8wsPV1bQLIe/VZn+73//+6V7fPjwwRZXMt7r8M7LardgxVsA5rYEvr4V7mr0CTGW1XgrJX3bChmzS4uowV3R7eQaSmxbce1dnOuMcnBUwpmXRo9XZRVxwC0082nKqKX2RSirrT7Dba3uui2V1e8HbzDhwAsbtekqldUwMZxfvyX4Fg7sbZ3+hr9e/Y9//CMsBX/++ecPHz788ccff/311+y6OllW2xv1WKT2VdMmvqCzuCeV1ag/lFXr6m+ltK3iWwBIoLHhLM83rKuQ37K/s+uKRxHfdO8+idm//RS11DaNqoCK+ncoVlBWM/LY9FQc3raIn4MI4+Qd5d7JP17ItSXvOIFQeG7179/+9jcM7d27d//6179mT3+DshrfRAjvf6N73TeSBy82N+7w+r5exoR4UJ77nccS6LgWLvkKldVL0vzRY7UysI+uWBotpbIa1dieISoK37Ao871V1NHM4DXF4y2irAYNhDGf0gP3Tvw5iFMH1/7pBEiZ4THyeOe5WZetVsOtYDLe6dB+5JV5pUQVbA3zKbbumLYchpOc3jNIgm0Ds1o98i7aj/Tb+VrC2aMc3nYeXR0lQ8Z79PVX3dnezjXSitXRaKkVT/fWAFS0nrJ6Ch3Xhse7oK7STeAwbOcwipLpqUDewH7C2RNB3nYGmYb3VsPt34LeW22zWPwOGFJb+JhSd0M4JcTe26dCU4Pj/T0kxHTM9sV4b1VlNZueXJMeb2HLgFNXcpBH97m5/h33dqfeW+XRnyFfZVrF5i2V1VaX/QPvfmGgY0a8Nhx7XfT/6Otju8s832pZ/fDhw93dnS2ogRcZ72WA5kcxWuokFatd97p2cRke4TbdwXfA8CkkGOGl2U3g9kA4Ti/Xvhh354jvouUdu+424cxTmMe7YPoj470u6OHR7X3d4MWFV2d0v9pmviV4sPPgvdX2Yi5+oGl4nkX2EM4e5fC2C+rqZspqmwfjxz0Ovw4xTUc/WiZ/9PXTejH1Vbcq02K+tzo1EDf2ulvV1akwkfGeaqL9ZxAgnHlp9HhVVs+I1EETvPUV95oL/3hZl37vvv0Q5sND/6MN7XsV4fouXeJlywjzoc1wWy9/fTzrbM+1yZSMdzbmNZyIcPYkON52wfRHxltDuGcbI+HMteHxLqir21itpncaBkJJq9j2DbBwt62rmukeXfcxgbT6bMvwkS8mdkvh9DPC6fWDU86wozaZkvHOQLueUxDOngTH2y6Y/sh46wn6DCMlnLk2PN4FdXU7ZfXg3S8opa2R8Q0w1EvzNkZYfYYfUwz3kNs9eGs2rVPbj5zc/xY/t7L0d65rkykZL0Itw0+AcPYkON52wfRHxuuHqSOAAOHMteHxLqir2ymreGMVsWwNU0EPvvUVC+fxsho/kdI9x6qcSmx7YK1WDzjv954JwNsW9onNbNw3tVlb+iPjvam4Lj0YwpnPfY9XZdUb9oMlZnew/te/Tq1WeVk13x6LPWtv/z6aX+dXWY1k+mfPBOBtVVYz1NfbrC39kfFeD3KFRyac+dz3eIsoq9vu8dw9gr3dbl+6BzY3m83z83PYH3a+vLxYg+C7spjSe6jt1x3aj5iHVWbaf/De6umy2v1qSf9zrGgSf6IzfvuwgNUqgpIZm+6R7cSmM75PT084VGZc9bzL6erKsi3s8E3TZGHF5lXjK10VJoQLd6c2XUHPTQDpvDpYNP21FTQ+4p3b+F+9Tt3OxU3grhLHr+jgk8BdbcZrWkRx+Xvw+guLcPxwhLMngrztgld/ZLzjsPSKyQQIZ64Nj1e6mhyftb6wNl3dxnura1Xb2f2uTaZkvGczVMMhAcLZUzh5W5XVYSBubE9tulJZXaWAa5MpGe8q41dqpwlnXho9XpXVUuVwsX7VpiuV1YtJZ84D1SZTMt45sd/8uQhnT+HkbVVWpatTBLhyuHdBXamsngpo0fuV/ooOz2o7J12tNnRFd7w2XamsFi3HU52rTaZkvKcQaf8ZBAhnvjLweBdcVZDxnkFPTU4RIJw9yuFtF9SVyuopJRS9vzaZkvEWHae1dY5w5inM410w/ZHxri10RfeXcPYoh7ddUFcqq0XL8VTnapMpGe8pRNp/BgHCmacwj3fB9EfGewY9NTlFgHD2KIe3XVBXqayGLr51j2AP/3Lvbrcj+E4R1/4zCDRNM4yOP4Kj8d1sNoucV7o6QyRnNJGuzoCmJqMEatMV8mSfpnli5V6V1VF5XeoFtclUZfVSyuHHka44H3nPI1CbrlJZDbzCWuQUO+7Vb7ee4nbx/aTM8Bh5vAveVCHjvTjbmg9IOHuUw9tKVzcvudp0lW4Ch9DyCcC9KquzTY/aZErGOxvzGk5EOPO57/GqrN68tGrTlcrqKiVdm0zJeFcZv1I7TTh7Cidvq7Jaqhwu1q/adKWyejHpzHmg2mRKxjsn9ps/F+HMS6PHq7IqXZ0isFJdqayeCmjR+5X+ig7PajsnXa02dEV3vDZdqawWLcdTnatNpmS8pxBp/xkECGfPuoG31Wr1jEitq0ltulJZXZc++97WJlMy3lXGr9ROE868NHq8KqulyuFi/apNVyqrF5POnAeqTaZkvHNiv/lzEc6ewsnbqqxKV6cIcOVw74K6SmU1dJH/4AP36ucgTonj4vtr+3o1SfcXZ1vzAaWrmqN/vbHXpqv0cxCXKquNHrMQCPEa/uWXPh7vbreDXGY+7yxEdZKWwDCyYY9HObytdFWD8qrSFfJkEy5VwuBPXbZwbwmL7mHPeZ89Xo3X0vaQ5G1XypmssG9yvLvdzurB2hqvpbFSPSu+COJ0PausAloypuNLbaLF23q8mpaRcfvsIcnbOjmrrCJMV+WsdC/OIJAZeI8z2z9b3lBZHZIfSdnOtKt0AOI3mXZVVm87vpq/ii8IZAbKucpqRqbdvMl0r3SASF81viqr83CWnsUZBDID5S3bP5rbeWbgXrvcUlkdkldZzZksLtO8Q2OXPnwCcK+dHmecV2UV0K7KWWVVnEEgMxbPVyqrWUTaTaWDDMriMs36MxojHkHuVVm1tDkrj9fJWWUVYeJREGeAmi1vqKxa5r0tmWZQVFYBhGuDf4ebt1X6A+TZ0p89Y7B5jDxexdfS9pDkbUvgrLJqY93b5Ydt2GneZ4+3BJmuaLy6CYxgcdVJVwClywiLwkmjBF31XwPnX9zm3gW/1o2v34YJbP/yPnu8Gq84WwLWfnt7O/unFaSrjOTb25vdY23N3+k0pKvprC6lK5VVy7y3OVzJ1CLjrDzelXJWWYU8ePRXGt+zi73GC2HsdjuuDY+3BM66CZzdfmg3Q/iPOOIuvdcYSYyw4iS5t4SbORgmDN5nvbcKUJpHFkWwlTfAZHQerfojaSqrCHQyeMhXmu5XLdMUm2jxGHm8zvjqvdUYopFLLidn6VmcQSAzFr98UVnNItJu8qSsdGCRcVYe70o5q6xCHjz6K42vyrniCwKZgXKuspqRaTeVDjIokEu2f5QVJ8m9K027KqsQyU3GV2VV8QWBzECeVFnNyLSbSgcZFMgl2z/KipPkXpVVS5uz8nhXylnlDfLg0Vd8AWq2fKWyapn3tmSaQVFZBRCuDX1kCaBGU5jS/XRWo6ojFxniPD9nlVXLvLe5iCVTi4yz8nhXylk3gSEPHv2VxpcUMI0XoQ9GtZfjKquZEtpNTY8MSrXTI+Mwqg2tVi0xzSNLQ5cRlgbXhsdbAmeVVRvr3uZBLSFsw07zPnu8Gq+lPUpSq1Xg4qykK4CacrmmVTJwla+rZts9nrtHsLfb7Uv3wOZms3l+fg77w86XlxdrPD094cWZseke2U5s6rwgud1uxRk0grFGXTVNP6c0j6TnG9BzyPwhY6suTKyDWq3iGigZ5V8Npb5Gi/fZ49WqIjJun0dJarUKXJyVdAVQU3Sl1Spwla8rlVUEKxnlhy31NVq8zx6v0l9k3D6PklRZBS7OSroCqCm6UlkFrvJ1pbKKYCWj/LClvkaL99njVfqLjNvnUZIqq8DFWUlXADVFVyqrwFW+rlRWEaxklB+21Ndo8T57vEp/kXH7PEpSZRW4OCvpCqCm6EplFbjK15XKKoKVjPLDlvoaLd5nj1fpLzJun0dJqqwCF2clXQHUFF2prAJX+bpSWUWwklF+2FJfo8X77PEq/UXG7fMoSZVV4OKspCuAmqIrlVXgKl9XKqsIVjLKD1vqa7R4nz1epb/IuH0eJamyClyclXQFUFN0pbIKXOXrSmUVwUpG+WFLfY0W77PHq/QXGbfPoyRVVoGLs5KuAGqKrlRWgat8XTWhi2/dI9jDv9y72+02m82wlf/IOm9GVZwBhGvD43XquWn6OYWuwuC9cp737e0NJ8oMnTcDonkEIFwbHm/NelZZhcCSwcVUs1wSo2hxVh7vSjmrrEZp7Hj0VxpfXb4oviCQGbhc001g3FpIRoCVtgeWfnoeSDgrj3elNwl1E3iiNlYaX92MVXxBIDNQF1RWMzLtJi8GSgcWGWfl8a6Us8oq5MGjv9L4qqwqviCQGSqr7ZTPoGBT6QAoggG5ZPtHL0E4Se5dadpVWYVIbjK+yhuKLwhkBvKkVqsZmXZT6SCDArlk+0dZcZLcq7JqaXNWHu9KOau8QR48+oovQM2Wr1RWLfPelkwzKCqrAMK1oX9jDlCjKUzpfjqrUdWRiwxxnp+zyqpl3ttcxJKpRcZZebwr5aybwJAHj/5K40sKmMaL0Aej2stxldVMCe2mpkcGpdrpkXEY1YZWq5aY5pGlocsIS4Nrw+MtgbPKqo11b/OglhC2Yad5nz1ejdfSHiWp1SpwcVbSFUBNuVzTKhm4yteVfg4ixOjgr77GfoBDv6JlcHBtvL296ecgQIuz0s9BANRuN/LTGZwk94rz/JxVVi3z3pZMMyj49ZBsv9JBBkRl1QLRPLI0VN4sDa4Nj7cEzroJjFsLyQjhT9sDS+81Agln5fGu9CahbgJP1MZK46ubsYovCGQG6oLKakam3eTFQOnAIuOsPN6VclZZhTx49FcaX5VVxRcEMkNltZ3yGRRsKh0ARTAgl2z/6CUIJ8m9K027KqsQyU3GV3lD8QWBzECe1Go1I9NuKh1kUCCXbP8oK06Se1VWLW3OyuNdKWeVN8iDR1/xBajZ8pXKqmXe25JpBkVlFUC4NvS9VYAaTWFK99NZjaqOXGSI8/ycVVYt897mIpZMLTLOyuNdKWfdBIY8ePRXGl9SwDRehD4Y1V6Oq6xmSmg3NT0yKNVOj4zDqDa0WrXENI8sDV1GWBpcGx5vCZxVVm2se5sHtYSwDTvN++zxaryW9ihJrVaBi7OSrgBqyuWaVsnAVb6u9HMQIUYHf/mXkUv4uvFBd7sN3mePV+O1tEdJ6leWgIuzkq4ASj+rYlE4aZSgK5XVLKDtptJBBkW/sgQgXBv6lSWA0jyyKIKteQQmo/Po7e0NL84M3raIshpW1qHfWGVnBvfqZo7FxVl5vOK8Cs66CYwwcbVLzwClm8AWhZNGCbrSe6tZQNtNpYMMij6yBCBHtfH4+PjLL798/foVH1n6+vXrzz///Pj4iIbSlUURbOkKTI7q6iLeEsoMBgLjtsersopAJ4OHXDJNpMYuQThJ7l0R59fX17u7u48fP/7zn/9smubXX3/9+PHj3d3d6+vrdFYrGi8GxSPIvRovMI5ecnGS3CvO83NWWbXMe1syzaBoVQEgp7Tx+fPnn376qWmav//9703T/PTTT58/f0arYJxqi5eJM1BwVh6vygwgq5xbFE4aVlcqqxnYdpNPWotv2Ji39Xh1XkvbQ5K3PY/z6+vr+/fvm/h4//59tlSVrmz4gq3LCDDhmvR4z9Nz6JjOiwD90PxVWbXcepuLSTK1yDgrj3d1nD9//nx3d9c0zd3d3XCp+kPT0hIOtockb7s6zqMkNd5MP7p8ARCuDY/XziOVVQBPBodr8aU20eJtPV6dNzJunz0keduzOWPBenSpOtrns887euQrjVfntYIcpaH4Wlxckx5vCZxVVm2se5sHtYSwDTvN++zxaryWNif573//++i7quEIvK04T+fMSXKvOIuzJWBtrhzutbpSWbVUe3s6vmFj3tbjtWHTeT0keVsP57/++uv3338fvqsa4nW98/Ijc69nvPzI3Kvz2lnMWXm84jw/52bbPZ67R7C32+1L98DmZrN5fn4O+8POl5cXazw9PeHFmbHpHtlObOq8ILndbsUZNIIRPwCk56sTwJTMDM1fC0T5CjNU+WpYEFEHtVq1lzK9za8NdfVnkXFWHu9+vye/WGT7INtJgHD2RJC31TyyUeOsPF5xnp+zyqpl3ttcxJKpRcZZebwqq5bzVW2VVeD1KJa3Vd4A5NGPd3GS3FsCZ5VVG+veLj9sw07zPnu8C8qUpPshAe05mwDh7FEOb7ugrvSFE0iFx8jjrTm+KqsQWDK4mGqWS2IULc7K49VqNTK++rPKKhB7FMvbKm8AslarLQrJxQpC08PS4NrweFVWLeer2iqrwOtRLG+rvAHIozWFk+TeEjhrtWpj3dvlh23Yad5nj3dBmZJ0PySgPWcTIJw9yuFtF9SVbgJDKjxGHm/N8VVZhcCSwcVUs1wSo2hxVh6vVquR8dWfVVaB2KNY3lZ5A5C1Wm1RSC5WEJoelgbXhsersmo5X9VWWQVej2J5W+UNQB6tKZwk95bAuQldfOsewR7+5d7dbrfZbIat/EfWeTOqtXEm6d5OUdlOAk3T54FMb7vdjs9Bj1d5w9L2kORtxXl+ziqrlnlvS6YZlKXKucqqs15ObK6yCsHzue/xqrwB8s1frum91SOZJ4T/iCPu0kceIomRNwg4Se7VTWBAvrZBLl94jDzeEm7WDcF6RsTbaryWNmfl8ZbAWWXVxrq3eVBLCNuw07zPHu+C4yXpfkhAe84mQDh7lMPbLqgrXRZDKjxGHm/N8VVZhcCSwcVUs1wSo2hxVh6vVquR8dWfVVaB2KNY3lZ5A5Bv/yNLYahcENwrudQjFztSv3JGdUXS/bAn2nM2AcKZx8jjVd6w8fKQ5G3FeX7OWq1a5r0tmWZQlrppRtJ91kNteggQznwueLxK9zZkHpK8rTjPz1ll1TLvbck0g6KymgG5sU2VVQSUz32PV+UNkHUTuEXBxSS51CMXO9Jgc214vHpvdUj7SntUVgHWo1jeVnkSkEdrCifJvSVw1mrVxrq3yw/bsNO8zx7vgjIl6X5IQHvOJkA4e5TD2y6oq6Xuvui8kCjXhsdbgq70cxAhggd/+Ze+9bVuC4uz8nh3ux1J95ifMvwE9HMQkLRHsbyt8gYg3/7PQYShckFwr+RSj1zsSP3KGdWVyqq/ZE45gsoqhM016fEqTwLy7ZfVMOvCgE/NQO4tYdE97Dnvs8er8VraHpK8rd5btZyvapPLFx4jj1fzyMbUQ5K3Fef5Oeu9Vcu8tyXTDMpS7wmRdJ/1UJseAoQznwser9K9DZmHJG8rzvNzVlm1zHtbMs2gqKxmQG5sU2UVAeVz3+NVeQNkfRK4RcHFJLnUIxc70mBzbXi8ugk8pH2lPSqrAOtRLG+rPAnIozWFk+TeEjhrtWpj3dvlh23Yad5nj3dBmZJ0PyQQ93x7aOLjt8fvcW9Zz0+P97GPDTrZ7nz4dqqj3Huq1bT9hLNHObztgrpa6u6Lzgs9cm14vCXoSmUVgU4GD2oJYUt9jRbvs8e74HhJuo/jzp7bmnr/pS+m37/cp6KVvXDBza6mPvzZ9+Dbp6bvJC+c3OsbDuHsUQ5vu6CuVN6gFx4jj7fm+KqsQmDJ4GKqWS6JUbQ4K4/3jJvAgzr6/fG3pi9gXTHrlohxRfjnQ/Pbw8NvYdl4//jUDelPrHXDy8wR9t8emu5lXYV7/BIWnPePT3F9/CkuNY+f675t8Nvj9/YUsQ/7/b59sTlIcKVuhP7HUzQP37qz92dqhxBW5G0/+5HEq4oYovFnlVUw8iiWt1XeAGTdBG5RSC5WEJoelgbXhsf742W1LS1YqtpO7tuK2LvS6rArXV3R7WpSWxRj4dzvv3+57w51qqyao6VaG2pze65Qyw/PFSt315kmtLK9RL3sC23rSxcKB95YlWNZbV/WF/VvD7Zm2+OftlVWwcajWN5WeQOQR2sKJ8m9JXDWryyFGB385V/61te6LSzOyuP98V9ZsiXQTuGwIoylCEXLrBpjWUplNba3x4xeHCGUvVTPusJpDtutRLvz2p3dodszxuVlv1BG4Yznbp9j4UyHsi+L3th/2/IHbP0cBCTtUSxvq7wByLf/cxBhqFwQ3Cu51CMXO1K/ckZ1RVZRx4pGWwKPr1YPqlqsjrEm9YvCUB3botU9zM3V+D5obGgKm6ln0dueyz5ircVHk7Kuo2/msO0yF4/QEF4Ytuju92gSe5udhm2qrELYXJMer/IkIN9+WQ2zLQz41Mzj3hIW3cOe8z57vBqvpe0hydv++E1gc8s0dvHbp+5+rC1FrZ2XOlMd+5Zxj1mtoqE5WnzZPt1ANtU69sIsOtPtZThjPcZhUWht4YQXhr1FjIOZ+9hp35hFLl94jDxezSMbFg9J3lac5+esjyxZ5r0tmWZQlvrkJEn3WQ/jZnoPtV+D9m80pv0H73fGFWRfHQ8rFt5bDW9btq9Jb6P2t5SPlNXurdOwZOyaxJvA8VzxM0p9l9NrcPZUVtuinn9OuH1ZeO82eb99wjJd763qsyBxNsTnpeZvtedVWY3SM88qqwZGay41PX68rIZVI+6fxvdT+w/chv1xp1lWojp2Ra572UEVbPfcf3m0nwQOn8VFw7RaPThX/JiSOVcLtCuNsZexP/1HmR6+7bt62Z3z8U98mbW9MggfIY6dvH/8gk8CB2/3ivjVnSyIZJNw5nPB411QV0vpWeeFCD3K4W1L0JXKKgKdjPLDlvoaLd5nj3dBmZJ0H8et5wsQIJw9yuFtF9SVyhtEw2Pk8dYcX5VVCCwZXEw1yyUxihZn5fGe8d5q7JSef4yAyip4eRTL2ypvAPLtf8EmDJULgnsll3rkYkfqV86orki6H/ZEe84mQDjzGHm8yhs2Xh6SvK04z89Zq1XLvLcl0wzKUjfNSLrPeqhNDwHCmc8Fj1fp3obMQ5K3Fef5OausWua9LZlmUFRWMyA3tqmyioDyue/xqrwBsm4Ctyi4mCSXeuRiRxpsrg2PV++tDmlfaY/KKsB6FMvbKk8C8mhN4SS5twTOzbZ7PHePYG+325fugc3NZvP8/Bz2h50vLy/WeHp6woszY9M9sp3Y1HlBcrvdijNoBIOkeztFZTsJNE2fBzAxYWj+AsV2u1W+wgxVvhoWRNRB3QQ+kpHKvxoadpr32eNd8OpPZXUY6GvsIZw9yuFtF9TVUm9q6LxQL9eGx1uCrlRWEehk8KCWELbU12jxPnu8C46XpPs4bj1fgADh7FEOb7ugrlTeIBoeI4+35viqrEJgyeBiqlkuiVG0OCuPV++tRsZXf1ZZBWKPYnlb5Q1Avv33VsNQuSC4V3KpRy52pH7ljOqKpPthT7TnbAKEM4+Rx6u8YePlIcnbivP8nLVatcx7WzLNoCx104yk+6yH2vQQIJz5XPB4le5tyDwkeVtxnp+zyqpl3tuSaQZFZTUDcmObKqsIKJ/7Hq/KGyDrJnCLgotJcqlHLnakweba8Hj13uqQ9pX2qKwCrEexvK3yJCCP1hROkntL4KzVqo11b5cftmGneZ893gVlStL9kID2nE2AcPYoh7ddUFdL3X3ReSFRrg2PtwRdNWEAb90j2MO/3Lvb7TabzbCV/8g6b0a1Ns4k3WN+yvATaJo+D2R62+12fA56vMoblraHJG8rzvNzVlm1zHtbMs2gLFXOVVb9JXPKEVRWIXg+9z1elTdAvvnLNd0EPpJ2QviPOOIu3cyJJEbed+ckuVfvrQLytQ1y+cJj5PGWcLNuCNYzIt5W47W0OSuPtwTOKqs21r3Ng1pC2Iad5n32eBccL0n3QwLaczYBwtmjHN52QV3pshhS4THyeGuOr8oqBJYMLqaa5ZIYRYuz8ni1Wo2Mr/6ssgrEHsXytsobgKxPArcoJBcrCE0PS4Nrw+NVWbWcr2qrrAKvR7G8rfIGII/WFE6Se0vgrNWqjXVvlx+2Yad5nz3eBWVK0v2QgPacTYBw9iiHt11QV7oJDKnwGHm8NcdXZRUCSwYXU81ySYyixVl5vFqtRsZXf1ZZBWKPYnlb5Q1A1mq1RSG5WEFoelgaXBser8qq5XxVW2UVeD2K5W2VNwB5tKZwktxbAmetVm2se7v8sA07zfvs8S4oU5LuhwS052wChLNHObztgrrSTWBIhcfI4605vvo5iKCcg7/8S9/6WreFxVl5vLvdjqR75AUZfgL6OQhI2qNY3lZ5A5Bv/+cgwlC5ILhXcqlHLnakfuWM6qrRYy4Cw8jOEN+lfr1L50W4+Rz0eGuuC7oJfORaP2juiCPu0k2kSGLkfXdOknvXeBPpr7/++v33319fX8HHGrc3Xj4i7l1jfPmIuFfjnT4XOEnuLYGzyqqNdW+XH7Zhp3mfPd4SZLqW8X7+/Pnu7u6PP/4Ydnj0YxribKF5FMvbirM4WwLW5srhXqsrlVVLtben4xs25m09Xhs2nddDkrc9m/Pr6+v79++bpnn//v3RBeuVzjtasHXebL7obhOAcG14vGfPoxvQs8oqBJYMLqaa5ZIYRYuz8nhXx/mPP/549+5d0zTv3r07umDlNFY3UFZZWQAAFzpJREFU3htIf1HF6ZnHyONVfBPlsS9trp2zyqqNdW/zoGp6WGSclce7Ls5YqobPGB1dsHIa6xpv0AAfEfdqvJpHloC1uXK4twRdqazaaPZ2+WEbdpr32eMtQablj/c///lPWKr+n//zf8KC9T//+U/WbR4Fcba4OCuPV5zF2RKw9qV0pbJqqfY2h6tpaZFxVh7viji/vr7e3d19/Pjx119/bZrm119//fjx493dXfYOK6exovFCAHxE3KvxAqPzdro4W5Il6EplNYtIuymZZlD0EQ8AOaqNx8fHX3755evXr/gJi69fv/7888+Pj49oKF1ZFMGWrsDkqK4u4i2hzGAgMG57vPqVpRDfg7/8S9A1f835AFO3wVl5vCvlfPYvFq10vG9vb0NVhD08+hqv5cZZebziPD9nlVXLvLe5iCVTi4yz8nhXylllFfLg0V9pfHUZofiCQGbg17t0Exi3JZIRYKXtgaWbV0DCWXm8K715RX7HmNNY6Xh3ux3EkBkabwZEeQNAuDY83hLmkcoqAp0MHtQSwpb6Gi3eZ49X442M2+dRkiqrwMVZSVcANUVXunwBrvJ1pbKKYCWj/LClvkaL99njVfqLjNvnUZIqq8DFWUlXADVFVyqrwFW+rlRWEaxklB+21Ndo8T57vEp/kXH7PEpSZRW4OCvpCqCm6EplFbjK15XKKoKVjPLDlvoaLd5nj1fpLzJun0dJqqwCF2clXQHUFF2prAJX+bpSWUWwklF+2FJfo8X77PEq/UXG7fMoSZVV4OKspCuAmqIrlVXgKl9XKqsIVjLKD1vqa7R4nz1epb/IuH0eJamyClyclXQFUFN0pbIKXOXrSmUVwUpG+WFLfY0W77PHq/QXGbfPoyRVVoGLs5KuAGqKrlRWgat8XamsIljJKD9sqa/R4n32eJX+IuP2eZSkyipwcVbSFUBN0ZXKKnCVr6tm2z2eu0ewt9vtS/fA5mazeX5+DvvDzpeXF2s8PT3hxZmx6R7ZTmzqvCC53W7FGTSCsUZdNU0/pzSPpOcb0HPI/CFjqy5MrINareIaKBnlXw2lvkaL99nj1aoiMm6fR0lqtQpcnJV0BVBTdKXVKnCVryuVVQQrGeWHLfU1WrzPHq/SX2TcPo+SVFkFLs5KugKoKbpSWQWu8nWlsopgJaP8sKW+Rov32eNV+ouM2+dRkiqrwMVZSVcANUVXKqvAVb6uVFYRrGSUH7bU12jxPnu8Sn+Rcfs8SlJlFbg4K+kKoKboSmUVuMrXlcoqgpWM8sOW+hot3mePV+kvMm6fR0mqrAIXZyVdAdQUXamsAlf5ulJZRbCSUX7YUl+jxfvs8Sr9Rcbt8yhJlVXg4qykK4CaoiuVVeAqX1cqqwhWMsoPW+prtHifPV6lv8i4fR4lqbIKXJyVdAVQU3Slsgpc5etKZRXBSkb5YUt9jRbvs8er9BcZt8+jJFVWgYuzkq4AaoquVFaBq3xdNaGLb90j2MO/3Lvb7TabzbCV/8g6b0ZVnAGEa8Pjdeq5afo5ha7C4L1ynvft7Q0nygydNwOieQQgXBseb816VlmFwJLBxVSzXBKjaHFWHu9KOausRmnsePRXGl9dvii+IJAZuFzTTWDcWkhGgJW2B9Z2ux3s63fwth6vbppZ5h6SvK2Ts24CI0xX5aybouIMApmxeH5WWc0i0m4qHWRQFpdp1p/RGPEIcq/KqqXNWXm8Ts4qqwgTj4I4A9RseUNl1TLvbck0g6KyCiBcG7vdTqvViayU7gFqtnRvzxjsUT3r8gXQOCurZ5VVQEvGdHypTbR4W4/Xhi2eLT17jszb6ryJ8tidDJXV6aykq+ms+AzlXnGen7PKqmXe25JpBkWrVQDh2lBZBajRFZjS/XRWo6oja0pxnp+zyqpl3ttcxJKpRcZZebwr5aybwJAHj/5K40sKmMaL0Aej2stxldVMCe2mpkcGpdrpkXEY1YZWq5aY5pGlocsIS4Nrw+MtgbPKqo11b/OglhC2Yad5nz1ejdfSHiWp1SpwcVbSFUBNuVzTKhm4yteVfg4ixOjgr77GfoBDv6JlcHBtvL296ecgQIuz0s9BANRuN/LTGZwk94rz/JxVVi3z3pZMMyj49ZBsv9JBBkRl1QLRPLI0VN4sDa4Nj7cEzroJjFsLyQjhT9sDS+81Agln5fGu9CahbgJP1MZK46ubsYovCGQG6oLKakam3eTFQOnAIuOsPN6VclZZhTx49FcaX5VVxRcEMkNltZ3yGRRsKh0ARTAgl2z/6CUIJ8m9K027KqsQyU3GV3lD8QWBzECe1Go1I9NuKh1kUCCXbP8oK06Se1VWLW3OyuNdKWeVN8iDR1/xBajZ8pXKqmXe25JpBkVlFUC4NvS9VYAaTWFK99NZjaqOXGSI8/ycVVYt897mIpZMLTLOyuNdKWfdBIY8ePRXGl9SwDRehD4Y1V6Oq6xmSmg3NT0yKNVOj4zDqDa0WrXENI8sDV1GWBpcGx5vCZxVVm2se5sHtYSwDTvN++zxaryW9ihJrVaBi7OSrgBqyuWaVsnAVb6u9HMQIUYHf/mXkUv4uvFBd7sN3mePV+O1tEdJ6leWgIuzkq4ASj+rYlE4aZSgK5XVLKDtptJBBkW/sgQgXBv6lSWA0jyyKIKteQQmo/Po7e0NL84M3raIshpW1qHfWGVnBvfqZo7FxVl5vOK8Cs66CYwwcbVLzwClm8AWhZNGCbrSe6tZQNtNpYMMij6yBCBcG/rIEkBpHlkUwdY8ApPRebTq95JVVhHoZPCQl3A1lPoaLd5nj1fjjYzb51GSWq0CF2clXQHUFF2tuszYkQaba8PjLUFXKqvDiI+kzhLCNuy0R4i8rcZraXNWWq1OZyVdTWc1qjpSdMV5fs4qq5Z5b3MRS6YWGWfl8a6Us1arkAeP/krjSwqYxovQB6Pam94qq5kS2k1NjwxKtdMj4zCqDa1WLTHNI0tDlxGWBteGx1sCZ5VVG+ve5kEtIWzDTvM+e7war6U9SlKrVeDirKQrgJpyuaZVMnCVryuVVQQrGeWHLfU1WrzPHq/SX2TcPo+SVFkFLs5KugKoKbpSWQWu8nWlsopgJaP8sKW+Rov32eNV+ouM2+dRkiqrwMVZSVcANUVXKqvAVb6umm33eO4ewd5uty/dA5ubzeb5+TnsDztfXl6s8fT0hBdnxqZ7ZDuxqfOC5Ha7FWfQCEajx1wEMCUzQ/PXAlG+wgxVvhoWRNRBrVZxDZSM8q+GUl+jxfvs8S64qiArvzhuPV+AAOHsUQ5vu6Cu9BE8iIbHyOOtOb4qqxBYMriYapZLYhQtzsrj3e/3JN3H8+v5AgQIZ08EeVvNIxs5zsrjFef5OausWua9zUUsmVpknJXHq7JqOV/VVlkFXo9ieVvlDUC++feSVVZtrHtb0yODstRNM5Lusx5q00OAcOZzweNVmbEh85DkbcV5fs4qq5Z5b0umGRSV1QzIjW2qrCKgfO57vCpvgKzVaouCi0lyqUcudqTB5trweHUTeEj7SntUVgHWo1jeVnkSkEdrCifJvSVw1mrVxrq3yw/bsNO8zx7vgjIl6X5IQHvOJkA4e5TD2y6oq6Xuvui8kCjXhsdbgq5UVhHoZPCglhC21Ndo8T57vAuOl6T7OG49X4AA4exRDm+7oK5U3iAaHiOPt+b4NgHcW/cI9vAv9+52u81mM2zlP7LOm1GtjTNJ98gLMvwEmqbPA5nedrsdn4Mer/KGpe0hyduK8/ycVVYt896WTDMoS5VzlVV/yZxyBJVVCJ7PfY9X5Q2Qb/5yTTeBj6SdEP4jjrhLN5EiiZGPs3GS3KuPLAHytQ1y+cJj5PHWfJNwGFAPSd5WnC1tzsrjtZxVVi3z3uZwLb5hY97W463wvCTdD8lrz9kECGePYnnbCvWsy3FIlGvD4y1BVyqrCHQyeFBLCFvqa7R4nz3eBcdL0n0ct54vQIBw9iiHt11QVypvEA2Pkcdbc3xVViGwZHAx1SyXxChanJXHq5vAkfHVn1VWgdijWN5WeQOQ9b3VFoXkYgWh6WFpcG14vCqrlvNVbZVV4PUolrdV3gDk0ZrCSXJvCZy1WrWx7u3ywzbsNO+zx7ugTEm6HxLQnrMJEM4e5fC2C+pKN4EhFR4jj7fm+KqsQmDJ4GKqWS6JUbQ4K49Xq9XI+OrPKqtA7FEsb6u8AcharbYoJBcrCE0PS4Nrw+NVWbWcr2qrrAKvR7G8rfIGII/WFE6Se0vgrJ+DCDE6+Mu/9K2vdVtYnJXHu9vtSLq3U1S2k4B+DgKS9iiWt1XeAOTb/zmIMFQuCO6VXOqRix2pXzmjulJZddbLic1VViFsrkmPV3kSkG+/rIaJFwZ8ahJybwmL7mHPeZ89Xo3X0vaQ5G11E9hyvqpNLl94jDxezSMbUw9J3lac5+esjyxZ5r0tmWZQlvrkJEn3WQ+16SFAOPO54PEq3duQeUjytuI8P2eVVcu8tyXTDIrKagbkxjZVVhFQPvc9XpU3QL79jyyFoUou00Ou6TGdlVNXJN3bPsh2EiCcPRHkbTWPbNQ4K49XnOfnrNWqZd7bXMSSqUXGWXm8M763+u2hiY/fHr/b4dVhq6wizh7F8rbKG4Cs1WqLQnKxgtD0sDS4NjzeucpqW1Pvv/TF9PuX+6a+yqqyCkl7FMvbKm8A8mhN4SS5twTOWq3aWPd2+WEbdpr32eNdUKYk3Q8JnLdnUEe/P/7WPPzZHezp8b5fxD58C0f/86H57eHht7D3/vGp2/sn1rrhZeYI+28PTfey9lAPj1/C8e4fn+L6+FN/4P3xc923Da5f5glnj3J42wV1tdRnBXReTFKuDY+3BF2prCLQyeBBLSFsqa/R4n32eBccL0n3cdzO57YEYql6eKy0iv32Kda2roJ2Rbdt2LRFMRbO/f77l/vuUKfKan+i9mip1oba3J4r1PLDc8XKfdizi28Rzh7l8LYL6krlDRLiMfJ4a46vfmUpKOfgL//St77WbWFxVh7vLL+yZEsgUk1ndOvLfi3Z2l2Fa8tqv3Jtl7mHZTW2t8eMRRdH6Kpv13CfSrI5bLds7U5hd8ZDX+lZPwcBSXsUy9sqbwDy7f8cRBgqFwT3Si71yMWO1K+cUV2RVdSFCkxbAo+vVg+qWqyO7U3g/jNNsazu0/3b3nWqrGb1OCur8TNT7XMs4fFcFxrsycOorELYXJMer/IkIN9+WQ1TLQz41LTj3poX+0NinJXHWyHn65fV9s4tKmWI5rdP3f3YU6vVWOpSWY0iiHtMWcUi1RwtvuywrMbDxoPt96aEp53XsQhnj2J52wr1rJvP0C/Xhsdbgq703ioCnQwe1BLClvoaLd5nj3fB8ZJ0H8ftf07voe7DHdr+Nm/af/B+Z6x/fXU8rJd4bzXc5m1fk95GPb1abd+g7d9b7ZrEm8DxXP5B8iMQzh7l8LYL6krlDXrgMfJ4a46vyioElgwupprlkhhFi7PyeOf6gk1YNeIebF/82vG1JTM84k6zgsSisyuE3ctQBWPD+y+P9pPA4Z1aNEzvrR6cK35MyZwrwr7Ws8oqyHoUy9sqbwCyvmDTopBcrCA0PSwNrg2Pd8ayagdUo62yiqh7FMvbKm8A8mhN4SS5twTOWq3aWPd2+WEbdpr32eNdUKYk3Q8JaM/ZBAhnj3J42wV1pZvAkAqPkcdbc3xVViGwZHAx1SyXxChanJXHq9VqZHz1Z5VVIPYolrdV3gBkrVZbFJKLFYSmh6XBteHxqqxazle1VVaB16NY3lZ5A5BHawonyb0lcNZq1ca6t8sP27DTvM8e74IyJel+SEB7ziZAOHuUw9suqCvdBIZUeIw83prjq7IKgSWDi6lmuSRG0eKsPF6tViPjqz+rrAKxR7G8rfIGIN/+anXbPZ67R7C32+1L98DmZrN5fn4O+8POl5cXazw9PeHFmbHpHtlObOq8ILndbsUZNIJB0r2dorKdBJqmwZTMDM1fC0T5CjNU+WpYEFEHtVo9kpF01ZlBWeqmmcpqFogrbRLOfC54vFq92Wh6SPK24jw/Z5VVy7y3JdMMispqBuTGNlVWEVA+9z1elTdAvv2bwGGoksv0kGt6TGfl1BVJ97YPsp0ECGdPBHlbzSMbNc7K4xXn+TlrtWqZ9zYXsWRqkXFWHq8+smQ5X9VWWQVej2J5W+UNQNZqtUUhuVhBaHpYGlwbHq/KquV8VVtlFXg9iuVtlTcAebSmcJLcWwJnrVZtrHu7/LANO8377PEuKFOS7ocEtOdsAoSzRzm87YK6WuqzAjovJMq14fGWoCuVVQQ6GTyoJYQt9TVavM8e74LjJek+jlvPFyBAOHuUw9suqCuVN4iGx8jjrTm+KqsQWDK4mGqWS2IULc7K49VN4Mj46s8qq0DsUSxvq7wByLd/EzhI4a17BHv4l3t3u91msxm28h9Z582o1saZpHs7RWU7CTRNkykNm3wOerzKG4C82+08JHlbcZ6fcz+deGC4V2GbP2z2jMHmMfJ4F4yvyqqzXk5srrKKCeWZKbztgvOotsvxxcerm8BHMk+YY0cccZfem4kkRj4lzklyr24CA/K1DXL5wmPk8eqmqA2rhyRvK87zc1ZZtcx7WzLNoCx1GUHSfdZDbXoIEM58Lni8Svc2ZB6SvK04z89ZZdUy723JNIOispoBubFNlVUElM99j1flDZBv/yNLYaiSy/SQa3pMZ+XUFUn3tg+ynQQIZ08EeVvNIxs1zsrjFef5OWu1apn3NhexZGqRcVYer95btZyvaqusAq9Hsbyt8gYga7XaopBcrCA0PSwNrg2PV2XVcr6qrbIKvB7F8rbKG4A8WlM4Se4tgbNWqzbWvV1+2Iad5n32eBeUKUn3QwLaczYBwtmjHN52QV0t9VkBnRcS5drweEvQlcoqAp0MHtQSwpb6Gi3eZ493wfGSdB/HrecLECCcPcrhbRfUlcobRMNj5PHWHF/9HERQzsFffa37AMdyv6JF0j3yggw/Af0cBATP577Hq5+DAOSb/1UplVUb697mk0fTwyLjrDze3W7X6DEXARtTa3siyNtqHomzJWBtrhzuLUFXugl85Fo/BPiII+7STaRIYuTjbJwk99Z8Ewl4YXBWHq84A/LNf5TGjjTYHuXwtjXrSmV1qLSRUlGzXIaw+NTyeMXZ0vaQ5G3FWZwtAWtz5XBvzbpSWbUq6m3JJYOi1TmAcG14vDWnIeCF4SHJ24ozIGt1blE4aVhdqaxmYNtNTcsMisoqgHBteLx2WuJ0MDxH5m11XkAenfucJPeKcz2cVVZtrHtb0yODorIKIFwbHq/SLiCrvFkUThrSlYXpmaG8reWssmqZ9/Z0fMPGvK3Ha8Om83pI8rbibNXFWXm84izOloC1164rlVUbzd7mQVU6sMg4K49XnMXZErC2dDWdhubRdFaX0pXKqmXe2xyuZGqRcVYerziLsyVgbelqOg3No+msLqUr/RxEIHnwt/yvGx90t9vgffZ4S/h6tcbriSBvq/hadXFWHq8418NZZdXGurf55NH0sMg4K49XnMXZErC2dDWdhubRdFaX0pVuAts7BL0dwnDEEXfpk7GRxMiXkThJ7tXNK0B2fhZUnC1J6crS4NrweGvmrLJqNdbbXEw1y2UIi7PyeMXZ0vaQ5G3FWZwtAWtz5XBvzbpSWbUq6m3JJYOi1TmAcG14vDWnIeCF4SHJ24ozIOsuiEXhpGF1pbKagW03NS0zKCqrAMK14fHaaYnTwfAcmbfVeQF5dO5zktwrzvVwVlm1se5tTY8MisoqgHBteLxKu4Cs8mZROGlIVxamZ4bytpazyqpl3tvT8Q0b87Yerw2bzushyduKs1UXZ+XxirM4WwLWXruuVFZtNHubB1XpwCLjrDxecRZnS8Da0tV0GppH01ldSlcqq5Z5b3O4kqlFxll5vOIszpaAtaWr6TQ0j6azupSu/n/GrGnCDvCXhwAAAABJRU5ErkJggg==&quot; alt=&quot;&quot;&gt;" style="text;whiteSpace=wrap;html=1;" vertex="1" parent="1">
          <mxGeometry x="15" y="772" width="30" height="40" as="geometry" />
        </mxCell>
        <mxCell id="kHEFJbHKmHTi1QgoeD7e-34" style="edgeStyle=orthogonalEdgeStyle;rounded=0;orthogonalLoop=1;jettySize=auto;html=1;entryX=0.16;entryY=0.55;entryDx=0;entryDy=0;entryPerimeter=0;" edge="1" parent="1" source="kHEFJbHKmHTi1QgoeD7e-3" target="kHEFJbHKmHTi1QgoeD7e-31">
          <mxGeometry relative="1" as="geometry">
            <Array as="points">
              <mxPoint x="840" y="230" />
              <mxPoint x="840" y="84" />
            </Array>
          </mxGeometry>
        </mxCell>
        <mxCell id="kHEFJbHKmHTi1QgoeD7e-37" style="edgeStyle=orthogonalEdgeStyle;rounded=0;orthogonalLoop=1;jettySize=auto;html=1;entryX=0.16;entryY=0.55;entryDx=0;entryDy=0;entryPerimeter=0;" edge="1" parent="1" source="kHEFJbHKmHTi1QgoeD7e-17" target="kHEFJbHKmHTi1QgoeD7e-32">
          <mxGeometry relative="1" as="geometry">
            <Array as="points">
              <mxPoint x="840" y="565" />
              <mxPoint x="840" y="184" />
            </Array>
          </mxGeometry>
        </mxCell>
        <mxCell id="kHEFJbHKmHTi1QgoeD7e-38" value="gov.notify API Keys&lt;div&gt;PDS Keys&lt;/div&gt;" style="text;html=1;align=center;verticalAlign=middle;resizable=0;points=[];autosize=1;strokeColor=none;fillColor=none;" vertex="1" parent="1">
          <mxGeometry x="996" y="650" width="130" height="40" as="geometry" />
        </mxCell>
        <mxCell id="kHEFJbHKmHTi1QgoeD7e-39" value="" style="image;aspect=fixed;html=1;points=[];align=center;fontSize=12;image=img/lib/azure2/identity/Entra_Managed_Identities.svg;" vertex="1" parent="1">
          <mxGeometry x="735" y="530" width="39.38" height="35" as="geometry" />
        </mxCell>
        <mxCell id="kHEFJbHKmHTi1QgoeD7e-40" value="" style="image;aspect=fixed;html=1;points=[];align=center;fontSize=12;image=img/lib/azure2/identity/Entra_Managed_Identities.svg;" vertex="1" parent="1">
          <mxGeometry x="730" y="191" width="39.38" height="35" as="geometry" />
        </mxCell>
        <mxCell id="kHEFJbHKmHTi1QgoeD7e-41" value="" style="image;aspect=fixed;html=1;points=[];align=center;fontSize=12;image=img/lib/azure2/management_governance/Application_Insights.svg;" vertex="1" parent="1">
          <mxGeometry x="688" y="377" width="44" height="63" as="geometry" />
        </mxCell>
        <mxCell id="kHEFJbHKmHTi1QgoeD7e-45" value="" style="image;aspect=fixed;html=1;points=[];align=center;fontSize=12;image=img/lib/azure2/identity/Entra_Managed_Identities.svg;" vertex="1" parent="1">
          <mxGeometry x="1020" y="330" width="39.38" height="35" as="geometry" />
        </mxCell>
        <mxCell id="kHEFJbHKmHTi1QgoeD7e-46" style="edgeStyle=orthogonalEdgeStyle;rounded=0;orthogonalLoop=1;jettySize=auto;html=1;entryX=0.55;entryY=0.95;entryDx=0;entryDy=0;entryPerimeter=0;" edge="1" parent="1" source="kHEFJbHKmHTi1QgoeD7e-2" target="kHEFJbHKmHTi1QgoeD7e-32">
          <mxGeometry relative="1" as="geometry" />
        </mxCell>
      </root>
    </mxGraphModel>
  </diagram>
</mxfile>
